<?xml version="1.0" standalone="no"?>
<svg viewBox="0 0 200 200" xmlns="http://www.w3.org/2000/svg">
  <path fill="#0F62FE" d="M45.3,-78.2C59.7,-70.2,73,-60,80.3,-46.6C87.7,-33.2,89.2,-16.6,88.4,-0.5C87.6,15.7,84.5,31.3,76.7,44C68.9,56.7,56.4,66.4,42.9,73.9C29.3,81.5,14.6,86.8,-0.3,87.4C-15.3,87.9,-30.5,83.6,-44.5,76.3C-58.5,69,-71.1,58.7,-78.4,45.5C-85.7,32.2,-87.6,16.1,-86.4,0.7C-85.2,-14.7,-80.8,-29.4,-73.9,-43.3C-67,-57.2,-57.5,-70.2,-44.8,-79.2C-32.1,-88.2,-16,-93.1,-0.3,-92.6C15.5,-92.1,30.9,-86.2,45.3,-78.2Z" transform="translate(100 100)" />
</svg>
